<mxfile host="app.diagrams.net" modified="2024-06-27T09:06:54.520Z" agent="Mozilla/5.0 (Windows NT 10.0; Win64; x64) AppleWebKit/537.36 (KHTML, like Gecko) Chrome/126.0.0.0 Safari/537.36" etag="6i4JqxWGbiE1pbSqIyBA" version="24.6.3" type="github">
  <diagram name="Page-1" id="74e2e168-ea6b-b213-b513-2b3c1d86103e">
    <mxGraphModel dx="1434" dy="794" grid="1" gridSize="10" guides="1" tooltips="1" connect="1" arrows="1" fold="1" page="1" pageScale="1" pageWidth="1100" pageHeight="850" background="none" math="0" shadow="0">
      <root>
        <mxCell id="0" />
        <mxCell id="1" parent="0" />
        <mxCell id="77e6c97f196da883-1" value="Pool" style="swimlane;html=1;childLayout=stackLayout;startSize=20;rounded=0;shadow=0;labelBackgroundColor=none;strokeWidth=1;fontFamily=Verdana;fontSize=12;align=center;" parent="1" vertex="1">
          <mxGeometry x="70" y="40" width="500" height="750" as="geometry" />
        </mxCell>
        <mxCell id="77e6c97f196da883-2" value="用户" style="swimlane;html=1;startSize=20;fontSize=12;" parent="77e6c97f196da883-1" vertex="1">
          <mxGeometry y="20" width="160" height="730" as="geometry" />
        </mxCell>
        <mxCell id="Jm-xKfdl77HLi0pYkR12-1" value="" style="edgeStyle=orthogonalEdgeStyle;rounded=0;orthogonalLoop=1;jettySize=auto;html=1;" edge="1" parent="77e6c97f196da883-2" source="77e6c97f196da883-8" target="77e6c97f196da883-9">
          <mxGeometry relative="1" as="geometry" />
        </mxCell>
        <mxCell id="77e6c97f196da883-8" value="&lt;font style=&quot;font-size: 12px;&quot;&gt;用户填写查询条件&lt;/font&gt;" style="rounded=1;whiteSpace=wrap;html=1;shadow=0;labelBackgroundColor=none;strokeWidth=1;fontFamily=Verdana;fontSize=12;align=center;" parent="77e6c97f196da883-2" vertex="1">
          <mxGeometry x="20" y="65" width="100" height="60" as="geometry" />
        </mxCell>
        <mxCell id="77e6c97f196da883-9" value="点查询" style="rounded=1;whiteSpace=wrap;html=1;shadow=0;labelBackgroundColor=none;strokeWidth=1;fontFamily=Verdana;fontSize=12;align=center;" parent="77e6c97f196da883-2" vertex="1">
          <mxGeometry x="20" y="220" width="100" height="60" as="geometry" />
        </mxCell>
        <mxCell id="77e6c97f196da883-10" value="展示结果" style="rounded=1;whiteSpace=wrap;html=1;shadow=0;labelBackgroundColor=none;strokeWidth=1;fontFamily=Verdana;fontSize=12;align=center;" parent="77e6c97f196da883-2" vertex="1">
          <mxGeometry x="20" y="470" width="100" height="60" as="geometry" />
        </mxCell>
        <mxCell id="77e6c97f196da883-3" value="业务系统" style="swimlane;html=1;startSize=20;fontSize=12;" parent="77e6c97f196da883-1" vertex="1">
          <mxGeometry x="160" y="20" width="160" height="730" as="geometry" />
        </mxCell>
        <mxCell id="Jm-xKfdl77HLi0pYkR12-4" value="" style="edgeStyle=orthogonalEdgeStyle;rounded=0;orthogonalLoop=1;jettySize=auto;html=1;" edge="1" parent="77e6c97f196da883-3" source="77e6c97f196da883-11" target="Jm-xKfdl77HLi0pYkR12-3">
          <mxGeometry relative="1" as="geometry" />
        </mxCell>
        <mxCell id="77e6c97f196da883-11" value="接收查询请求" style="rounded=1;whiteSpace=wrap;html=1;shadow=0;labelBackgroundColor=none;strokeWidth=1;fontFamily=Verdana;fontSize=12;align=center;" parent="77e6c97f196da883-3" vertex="1">
          <mxGeometry x="30" y="220" width="100" height="60" as="geometry" />
        </mxCell>
        <mxCell id="Jm-xKfdl77HLi0pYkR12-3" value="拼接查询SQL" style="whiteSpace=wrap;html=1;fontFamily=Verdana;rounded=1;shadow=0;labelBackgroundColor=none;strokeWidth=1;" vertex="1" parent="77e6c97f196da883-3">
          <mxGeometry x="20" y="360" width="120" height="60" as="geometry" />
        </mxCell>
        <mxCell id="Jm-xKfdl77HLi0pYkR12-8" value="返回页面" style="whiteSpace=wrap;html=1;fontFamily=Verdana;rounded=1;shadow=0;labelBackgroundColor=none;strokeWidth=1;" vertex="1" parent="77e6c97f196da883-3">
          <mxGeometry x="20" y="470" width="120" height="60" as="geometry" />
        </mxCell>
        <mxCell id="77e6c97f196da883-4" value="DB" style="swimlane;html=1;startSize=20;fontSize=12;" parent="77e6c97f196da883-1" vertex="1">
          <mxGeometry x="320" y="20" width="180" height="730" as="geometry" />
        </mxCell>
        <mxCell id="77e6c97f196da883-14" value="返回结果" style="rounded=1;whiteSpace=wrap;html=1;shadow=0;labelBackgroundColor=none;strokeWidth=1;fontFamily=Verdana;fontSize=12;align=center;" parent="77e6c97f196da883-4" vertex="1">
          <mxGeometry x="45" y="470" width="100" height="60" as="geometry" />
        </mxCell>
        <mxCell id="Jm-xKfdl77HLi0pYkR12-7" value="" style="edgeStyle=orthogonalEdgeStyle;rounded=0;orthogonalLoop=1;jettySize=auto;html=1;" edge="1" parent="77e6c97f196da883-4" source="Jm-xKfdl77HLi0pYkR12-5" target="77e6c97f196da883-14">
          <mxGeometry relative="1" as="geometry" />
        </mxCell>
        <mxCell id="Jm-xKfdl77HLi0pYkR12-5" value="引擎查询" style="whiteSpace=wrap;html=1;fontFamily=Verdana;rounded=1;shadow=0;labelBackgroundColor=none;strokeWidth=1;" vertex="1" parent="77e6c97f196da883-4">
          <mxGeometry x="40" y="360" width="110" height="60" as="geometry" />
        </mxCell>
        <mxCell id="Jm-xKfdl77HLi0pYkR12-2" value="" style="edgeStyle=orthogonalEdgeStyle;rounded=0;orthogonalLoop=1;jettySize=auto;html=1;" edge="1" parent="77e6c97f196da883-1" source="77e6c97f196da883-9" target="77e6c97f196da883-11">
          <mxGeometry relative="1" as="geometry" />
        </mxCell>
        <mxCell id="Jm-xKfdl77HLi0pYkR12-6" value="" style="edgeStyle=orthogonalEdgeStyle;rounded=0;orthogonalLoop=1;jettySize=auto;html=1;" edge="1" parent="77e6c97f196da883-1" source="Jm-xKfdl77HLi0pYkR12-3" target="Jm-xKfdl77HLi0pYkR12-5">
          <mxGeometry relative="1" as="geometry" />
        </mxCell>
        <mxCell id="Jm-xKfdl77HLi0pYkR12-9" value="" style="edgeStyle=orthogonalEdgeStyle;rounded=0;orthogonalLoop=1;jettySize=auto;html=1;" edge="1" parent="77e6c97f196da883-1" source="77e6c97f196da883-14" target="Jm-xKfdl77HLi0pYkR12-8">
          <mxGeometry relative="1" as="geometry" />
        </mxCell>
        <mxCell id="Jm-xKfdl77HLi0pYkR12-10" value="" style="edgeStyle=orthogonalEdgeStyle;rounded=0;orthogonalLoop=1;jettySize=auto;html=1;" edge="1" parent="77e6c97f196da883-1" source="Jm-xKfdl77HLi0pYkR12-8" target="77e6c97f196da883-10">
          <mxGeometry relative="1" as="geometry" />
        </mxCell>
      </root>
    </mxGraphModel>
  </diagram>
</mxfile>
